HIERARCHY
ROOT Pelvis
{
	OFFSET 0.000000 0.000000 0.000000
	CHANNELS 6 Xposition Yposition Zposition Zrotation Yrotation Xrotation 
	JOINT Left_hip
	{
		OFFSET 0.068973 -0.091024 -0.007589
		CHANNELS 3 Zrotation Yrotation Xrotation
		JOINT Left_knee
		{
			OFFSET 0.036482 -0.391037 -0.003979
			CHANNELS 3 Zrotation Yrotation Xrotation
			JOINT Left_ankle
			{
				OFFSET -0.012239 -0.415469 -0.043440
				CHANNELS 3 Zrotation Yrotation Xrotation
				JOINT Left_foot
				{
					OFFSET 0.023806 -0.058558 0.118702
					CHANNELS 3 Zrotation Yrotation Xrotation
					End Site
					{
						OFFSET 0.000000 0.000000 0.000000
					}
				}
			}
		}
	}
	JOINT Right_hip
	{
		OFFSET -0.066552 -0.090468 -0.003847
		CHANNELS 3 Zrotation Yrotation Xrotation
		JOINT Right_knee
		{
			OFFSET -0.042435 -0.398340 -0.006400
			CHANNELS 3 Zrotation Yrotation Xrotation
			JOINT Right_ankle
			{
				OFFSET 0.014931 -0.415421 -0.041327
				CHANNELS 3 Zrotation Yrotation Xrotation
				JOINT Right_foot
				{
					OFFSET -0.021472 -0.049410 0.121889
					CHANNELS 3 Zrotation Yrotation Xrotation
					End Site
					{
						OFFSET 0.000000 0.000000 0.000000
					}
				}
			}
		}
	}
	JOINT Spine1
	{
		OFFSET -0.002904 0.105700 -0.022855
		CHANNELS 3 Zrotation Yrotation Xrotation
		JOINT Spine2
		{
			OFFSET 0.004179 0.132554 -0.002501
			CHANNELS 3 Zrotation Yrotation Xrotation
			JOINT Spine3
			{
				OFFSET 0.001987 0.049603 0.025988
				CHANNELS 3 Zrotation Yrotation Xrotation
				JOINT Neck
				{
					OFFSET -0.003935 0.211336 -0.045638
					CHANNELS 3 Zrotation Yrotation Xrotation
					JOINT Head
					{
						OFFSET 0.003906 0.065991 0.051018
						CHANNELS 3 Zrotation Yrotation Xrotation
						End Site
						{
							OFFSET 0.000000 0.000000 0.000000
						}
					}
				}
				JOINT Left_collar
				{
					OFFSET 0.072882 0.117751 -0.036270
					CHANNELS 3 Zrotation Yrotation Xrotation
					JOINT Left_shoulder
					{
						OFFSET 0.082118 0.032630 -0.005771
						CHANNELS 3 Zrotation Yrotation Xrotation
						JOINT Left_elbow
						{
							OFFSET 0.263305 -0.015144 -0.028095
							CHANNELS 3 Zrotation Yrotation Xrotation
							JOINT Left_wrist
							{
								OFFSET 0.250741 0.010115 -0.000759
								CHANNELS 3 Zrotation Yrotation Xrotation
								JOINT Left_palm
								{
									OFFSET 0.080683 -0.009989 -0.013613
									CHANNELS 3 Zrotation Yrotation Xrotation
									End Site
									{
										OFFSET 0.000000 0.000000 0.000000
									}
								}
							}
						}
					}
				}
				JOINT Right_collar
				{
					OFFSET -0.074811 0.116132 -0.040385
					CHANNELS 3 Zrotation Yrotation Xrotation
					JOINT Right_shoulder
					{
						OFFSET -0.085089 0.032943 -0.007484
						CHANNELS 3 Zrotation Yrotation Xrotation
						JOINT Right_elbow
						{
							OFFSET -0.254763 -0.014219 -0.020321
							CHANNELS 3 Zrotation Yrotation Xrotation
							JOINT Right_wrist
							{
								OFFSET -0.256597 0.009233 -0.005063
								CHANNELS 3 Zrotation Yrotation Xrotation
								JOINT Right_palm
								{
									OFFSET -0.080528 -0.007219 -0.010379
									CHANNELS 3 Zrotation Yrotation Xrotation
									End Site
									{
										OFFSET 0.000000 0.000000 0.000000
									}
								}
							}
						}
					}
				}
			}
		}
	}
}
MOTION
Frames: 6
Frame Time: 0.100000
0.000000 0.000000 0.000000 -177.654711 -15.944436 -15.655021 7.234635 8.100373 16.833584 -2.670413 4.060684 -8.860286 -3.836419 11.342243 0.929087 4.565820 5.770174 -4.267932 -1.251621 -3.900944 12.301115 3.724067 -2.735939 -6.106435 2.612503 -4.536069 -0.713725 1.578860 -4.258316 6.564427 1.301547 -0.429882 -3.075685 0.561425 -2.928729 10.078144 0.133586 -1.555464 -0.217587 1.719899 8.670833 14.810674 -1.906482 3.535102 5.770929 -25.130786 -1.737576 8.625936 -51.759138 -2.780748 12.511152 3.814399 -26.019738 15.380878 -8.806139 -12.117222 9.643138 -9.891852 -2.540669 -21.090918 24.085411 6.549622 8.736837 52.543815 3.033188 14.717154 -6.112814 22.066911 6.550491 4.759914 7.425099 1.839691 9.548815 3.521611 -7.484520 
0.001199 0.000333 -0.000590 -177.767680 -15.946621 -15.768828 7.507237 7.982393 17.243245 -2.729607 3.648120 -9.228664 -3.791017 11.340615 0.954941 4.540073 5.845878 -4.208611 -1.055774 -3.760625 11.697667 3.690408 -2.871152 -4.636887 2.426114 -4.569113 -1.256769 1.551932 -4.292129 6.552293 1.269397 -0.686786 -2.685483 0.574079 -2.990514 10.107681 0.162013 -1.675464 -0.243000 1.718635 8.858986 14.637588 -1.938704 3.646765 5.646847 -25.239005 -2.079030 8.752992 -51.483268 -2.707571 12.370586 3.883665 -26.135688 15.135673 -8.546954 -11.881387 9.534542 -10.077848 -2.654147 -21.231693 24.169924 6.729448 8.716182 52.544279 2.932271 14.725365 -6.308133 22.555048 6.552530 4.769897 7.386002 1.679365 9.678999 3.561592 -7.476864 
0.006625 0.000665 -0.001745 -178.058521 -15.235081 -15.663092 7.996773 7.706187 17.370733 -2.602522 3.039287 -9.691478 -3.948678 11.077591 1.193349 4.616594 6.130920 -4.198457 -0.612315 -3.899005 10.909431 3.755963 -3.239008 -2.966421 2.337075 -4.863583 -1.964125 1.182395 -4.008345 6.519541 0.786551 -0.990911 -2.393148 0.634773 -3.319772 10.360072 0.323181 -2.090773 -0.063223 1.844634 9.169626 14.520970 -1.893487 3.273512 5.110862 -24.998839 -2.651845 8.966439 -51.097971 -2.744169 12.059865 3.844490 -26.200951 14.778981 -8.439887 -11.461437 9.459443 -10.330414 -2.796209 -21.394745 24.274520 7.037476 8.681234 52.862223 2.718259 14.708760 -6.494799 23.189212 6.731888 4.818551 7.230609 1.638422 9.945612 3.583063 -7.464382 
0.017800 0.002214 -0.005767 -178.265936 -14.345736 -15.360129 8.593004 7.537206 16.982837 -2.266939 2.497064 -9.970636 -3.953962 10.857063 1.549921 4.410381 6.380103 -4.010717 0.267354 -3.883348 9.774298 3.692027 -3.835818 -1.242769 1.966332 -5.344425 -2.912188 0.994181 -3.825545 6.617734 -0.267828 -1.137513 -1.400448 0.592138 -3.457420 10.810872 0.569869 -2.328893 -0.077987 1.979007 9.529788 13.991009 -1.456073 2.796037 3.757081 -24.583632 -3.455481 8.984926 -50.183649 -2.799122 11.655283 4.168399 -26.499237 13.572569 -8.269319 -11.145369 9.398964 -10.559848 -2.948411 -21.315059 24.584506 7.542200 8.678868 53.409260 2.194669 14.540331 -6.912429 23.742765 6.511906 4.950261 7.308292 1.350349 10.203247 3.588705 -7.166874 
0.033241 0.004332 -0.011857 -178.248947 -13.917849 -14.663562 9.192660 7.410035 15.717701 -1.855365 2.461470 -9.571827 -3.876588 10.652273 1.993165 3.915004 6.798871 -3.773040 1.225914 -3.869941 8.848597 3.884254 -4.186374 -1.053396 1.507289 -5.529382 -3.454930 1.052907 -3.750118 6.868979 -1.302344 -0.738370 -0.241923 0.299197 -3.330016 11.950815 0.628103 -2.149889 -0.288729 1.893443 10.161273 13.543393 -0.745732 2.072946 1.320903 -24.127087 -4.630211 8.802578 -48.902638 -3.012967 10.989116 5.032116 -26.583251 11.454947 -9.100539 -11.138719 9.860267 -10.601792 -2.988616 -21.102984 24.819278 8.757569 9.098084 53.842744 1.730140 14.337981 -7.175852 24.592040 6.601462 5.563036 7.761942 1.678339 10.430584 3.504647 -6.789964 
0.050363 0.007031 -0.018066 -177.797385 -13.611723 -14.074179 9.610166 7.358530 14.129305 -1.612253 2.731486 -8.361942 -3.873096 10.466308 2.271983 3.501143 7.247255 -3.581084 1.839749 -3.766080 8.394251 4.213161 -4.310889 -1.636093 1.002831 -5.497635 -3.956931 1.148112 -3.826703 7.037400 -1.788642 -0.167987 1.383700 -0.344928 -2.947563 13.346216 0.321144 -1.716566 -0.277304 1.589371 10.424611 12.983639 -0.005492 1.028118 -1.466317 -23.905576 -5.961325 8.774371 -47.443929 -3.355045 9.970907 6.199610 -27.294811 9.257403 -9.812660 -11.472542 10.090447 -10.330446 -2.721039 -20.816652 24.586381 10.524031 9.804787 53.813572 1.710729 13.968313 -7.303626 25.741254 6.844571 5.917206 8.247416 2.125262 10.260886 3.257795 -6.432317 
